<svg width="16" height="17" viewBox="0 0 16 17" fill="none" xmlns="http://www.w3.org/2000/svg">
<path d="M15.1721 0.803823C15.0166 0.413251 14.5721 0.397628 14.386 0.766328C13.5248 2.45048 11.983 3.50034 10.2217 3.50034H7.99924C5.05452 3.50034 2.6654 6.18748 2.6654 9.49953C2.6654 9.71825 2.68762 9.9276 2.70707 10.1401C4.47946 8.71214 7.03804 7.4998 10.6662 7.4998C10.9106 7.4998 11.1106 7.72477 11.1106 7.99973C11.1106 8.2747 10.9106 8.49967 10.6662 8.49967C3.68216 8.49967 0.720771 13.3146 0.065153 15.1238C-0.118198 15.6331 0.0984895 16.2143 0.55131 16.4236C1.00691 16.6361 1.52362 16.3892 1.71253 15.883C1.7542 15.7706 2.29314 14.3864 3.70994 13.0522C4.61003 14.4239 6.3213 15.7331 8.56874 15.4644C12.9303 15.1082 16 10.7087 16 5.32197C16 3.75343 15.7 2.12865 15.1721 0.803823Z" fill="#62D135"/>
</svg>
